<svg width="1440" height="980" viewBox="0 0 1440 980" fill="none" xmlns="http://www.w3.org/2000/svg">
  <defs>
    <linearGradient id="bg" x1="80" y1="40" x2="1340" y2="930" gradientUnits="userSpaceOnUse">
      <stop stop-color="#DCE8F6"/>
      <stop offset="0.52" stop-color="#EDF4FB"/>
      <stop offset="1" stop-color="#F8FBFF"/>
    </linearGradient>
    <linearGradient id="menubar" x1="824" y1="196" x2="824" y2="248" gradientUnits="userSpaceOnUse">
      <stop stop-color="#C8EDFF"/>
      <stop offset="1" stop-color="#B8DEF3"/>
    </linearGradient>
    <filter id="shadow" x="12" y="22" width="1416" height="936" filterUnits="userSpaceOnUse" color-interpolation-filters="sRGB">
      <feFlood flood-opacity="0" result="BackgroundImageFix"/>
      <feColorMatrix in="SourceAlpha" type="matrix" values="0 0 0 0 0 0 0 0 0 0 0 0 0 0 0 0 0 0 127 0" result="hardAlpha"/>
      <feOffset dy="18"/>
      <feGaussianBlur stdDeviation="18"/>
      <feColorMatrix type="matrix" values="0 0 0 0 0.211765 0 0 0 0 0.286275 0 0 0 0 0.376471 0 0 0 0.18 0"/>
      <feBlend mode="normal" in2="BackgroundImageFix" result="effect1_dropShadow_0_1"/>
      <feBlend mode="normal" in="SourceGraphic" in2="effect1_dropShadow_0_1" result="shape"/>
    </filter>
  </defs>

  <rect width="1440" height="980" fill="url(#bg)"/>

  <g filter="url(#shadow)">
    <rect x="48" y="58" width="1344" height="864" rx="30" fill="rgba(249,252,255,0.78)"/>
    <rect x="48.5" y="58.5" width="1343" height="863" rx="29.5" stroke="white" stroke-opacity="0.7"/>
  </g>

  <rect x="48" y="58" width="1344" height="70" rx="30" fill="rgba(255,255,255,0.36)"/>
  <line x1="48" y1="128.5" x2="1392" y2="128.5" stroke="rgba(57,73,92,0.08)"/>

  <circle cx="82" cy="93" r="10" fill="#FF5F57"/>
  <circle cx="112" cy="93" r="10" fill="#FEBC2E"/>
  <circle cx="142" cy="93" r="10" fill="#28C840"/>
  <text x="192" y="100" font-size="18" font-weight="700" fill="#364456" font-family="SF Pro Display, Helvetica Neue, Arial">FluxBar Settings</text>

  <rect x="82" y="162" width="420" height="716" rx="24" fill="rgba(255,255,255,0.72)" stroke="white" stroke-opacity="0.66"/>
  <rect x="526" y="162" width="824" height="716" rx="24" fill="rgba(255,255,255,0.72)" stroke="white" stroke-opacity="0.66"/>

  <text x="108" y="206" font-size="14" font-weight="800" letter-spacing="1.2" fill="#7F8DA0" font-family="SF Pro Display, Helvetica Neue, Arial">MENU BAR CONTENT</text>

  <rect x="108" y="224" width="368" height="344" rx="20" fill="rgba(255,255,255,0.9)" stroke="rgba(59,76,95,0.06)"/>
  <g font-family="SF Pro Display, Helvetica Neue, Arial">
    <text x="128" y="262" font-size="16" font-weight="650" fill="#2E3947">Mode</text>
    <text x="128" y="281" font-size="12" fill="#6F7D8F">Choose how compact FluxBar should stay in the menu bar.</text>
    <rect x="372" y="240" width="84" height="34" rx="17" fill="#EDF3FA"/>
    <text x="387" y="262" font-size="13" font-weight="700" fill="#45607F">Automatic</text>

    <line x1="128" y1="300.5" x2="456" y2="300.5" stroke="rgba(60,74,91,0.09)"/>

    <text x="128" y="338" font-size="16" font-weight="650" fill="#2E3947">Show temperature</text>
    <text x="128" y="357" font-size="12" fill="#6F7D8F">Adds the thermometer icon and live temperature readout.</text>
    <rect x="406" y="320" width="50" height="30" rx="15" fill="#1E87FF"/>
    <rect x="429" y="323" width="24" height="24" rx="12" fill="white"/>

    <line x1="128" y1="376.5" x2="456" y2="376.5" stroke="rgba(60,74,91,0.09)"/>

    <text x="128" y="414" font-size="16" font-weight="650" fill="#2E3947">Show network</text>
    <text x="128" y="433" font-size="12" fill="#6F7D8F">Shows upload and download speed in the menu bar preview.</text>
    <rect x="406" y="396" width="50" height="30" rx="15" fill="#1E87FF"/>
    <rect x="429" y="399" width="24" height="24" rx="12" fill="white"/>

    <line x1="128" y1="452.5" x2="456" y2="452.5" stroke="rgba(60,74,91,0.09)"/>

    <text x="128" y="490" font-size="16" font-weight="650" fill="#2E3947">Show memory</text>
    <text x="128" y="509" font-size="12" fill="#6F7D8F">Turns the memory meter on or off.</text>
    <rect x="406" y="472" width="50" height="30" rx="15" fill="#1E87FF"/>
    <rect x="429" y="475" width="24" height="24" rx="12" fill="white"/>

    <line x1="128" y1="528.5" x2="456" y2="528.5" stroke="rgba(60,74,91,0.09)"/>

    <text x="128" y="566" font-size="16" font-weight="650" fill="#2E3947">Show CPU usage</text>
    <text x="128" y="585" font-size="12" fill="#6F7D8F">Adds the CPU meter next to memory.</text>
    <rect x="406" y="548" width="50" height="30" rx="15" fill="#1E87FF"/>
    <rect x="429" y="551" width="24" height="24" rx="12" fill="white"/>
  </g>

  <text x="108" y="636" font-size="14" font-weight="800" letter-spacing="1.2" fill="#7F8DA0" font-family="SF Pro Display, Helvetica Neue, Arial">DROP-DOWN PANEL</text>
  <rect x="108" y="654" width="368" height="152" rx="20" fill="rgba(255,255,255,0.9)" stroke="rgba(59,76,95,0.06)"/>
  <g font-family="SF Pro Display, Helvetica Neue, Arial">
    <text x="128" y="692" font-size="16" font-weight="650" fill="#2E3947">Show Status</text>
    <text x="128" y="711" font-size="12" fill="#6F7D8F">Displays the system status block in the panel.</text>
    <rect x="406" y="674" width="50" height="30" rx="15" fill="#DDE7F2"/>
    <rect x="409" y="677" width="24" height="24" rx="12" fill="white"/>
    <line x1="128" y1="730.5" x2="456" y2="730.5" stroke="rgba(60,74,91,0.09)"/>
    <text x="128" y="768" font-size="16" font-weight="650" fill="#2E3947">Show Top Processes</text>
    <text x="128" y="787" font-size="12" fill="#6F7D8F">Displays the process list below Trends.</text>
    <rect x="406" y="750" width="50" height="30" rx="15" fill="#DDE7F2"/>
    <rect x="409" y="753" width="24" height="24" rx="12" fill="white"/>
  </g>

  <text x="552" y="206" font-size="14" font-weight="800" letter-spacing="1.2" fill="#7F8DA0" font-family="SF Pro Display, Helvetica Neue, Arial">LIVE PREVIEW</text>
  <rect x="552" y="224" width="772" height="80" rx="18" fill="rgba(255,255,255,0.88)" stroke="rgba(60,77,98,0.06)"/>

  <rect x="572" y="238" width="404" height="44" rx="22" fill="url(#menubar)"/>
  <text x="590" y="266" font-size="18" font-weight="700" fill="#193451" font-family="SF Pro Display, Helvetica Neue, Arial">🌡︎ 51°</text>

  <g transform="translate(690 245)">
    <text x="0" y="9" font-size="8" font-weight="800" fill="#1D3550" font-family="SF Pro Display, Helvetica Neue, Arial">C</text>
    <text x="0" y="16" font-size="8" font-weight="800" fill="#1D3550" font-family="SF Pro Display, Helvetica Neue, Arial">P</text>
    <text x="0" y="23" font-size="8" font-weight="800" fill="#1D3550" font-family="SF Pro Display, Helvetica Neue, Arial">U</text>
    <rect x="10" y="0" width="11" height="23" rx="6" fill="rgba(31,57,91,0.14)"/>
    <rect x="11" y="14" width="9" height="8" rx="5" fill="#FF9731"/>
  </g>

  <g transform="translate(732 245)">
    <text x="0" y="9" font-size="8" font-weight="800" fill="#1D3550" font-family="SF Pro Display, Helvetica Neue, Arial">M</text>
    <text x="0" y="16" font-size="8" font-weight="800" fill="#1D3550" font-family="SF Pro Display, Helvetica Neue, Arial">E</text>
    <text x="0" y="23" font-size="8" font-weight="800" fill="#1D3550" font-family="SF Pro Display, Helvetica Neue, Arial">M</text>
    <rect x="10" y="0" width="11" height="23" rx="6" fill="rgba(31,57,91,0.14)"/>
    <rect x="11" y="9" width="9" height="13" rx="5" fill="#2A95FF"/>
  </g>

  <g transform="translate(792 244)" font-family="SF Pro Display, Helvetica Neue, Arial" fill="#1D3550">
    <text x="0" y="12" font-size="14" font-weight="700">↑</text>
    <text x="20" y="12" font-size="14" font-weight="700">68K</text>
    <text x="0" y="30" font-size="14" font-weight="700">↓</text>
    <text x="20" y="30" font-size="14" font-weight="700">2K</text>
  </g>

  <rect x="1004" y="240" width="290" height="32" rx="16" fill="rgba(255,255,255,0.88)"/>
  <circle cx="1020" cy="256" r="5" fill="#16B7FF"/>
  <text x="1034" y="260" font-size="12" font-weight="650" fill="#66788F" font-family="SF Pro Display, Helvetica Neue, Arial">Changes update this preview immediately</text>

  <rect x="552" y="330" width="372" height="128" rx="18" fill="rgba(255,255,255,0.88)" stroke="rgba(55,72,91,0.06)"/>
  <rect x="952" y="330" width="372" height="128" rx="18" fill="rgba(255,255,255,0.88)" stroke="rgba(55,72,91,0.06)"/>
  <rect x="552" y="476" width="372" height="104" rx="18" fill="rgba(255,255,255,0.88)" stroke="rgba(55,72,91,0.06)"/>
  <rect x="952" y="476" width="372" height="104" rx="18" fill="rgba(255,255,255,0.88)" stroke="rgba(55,72,91,0.06)"/>

  <g font-family="SF Pro Display, Helvetica Neue, Arial">
    <text x="574" y="360" font-size="13" font-weight="700" fill="#7A8796">Network</text>
    <text x="574" y="404" font-size="24" font-weight="800" fill="#2E3947">↑ 68 KB/s</text>
    <text x="574" y="438" font-size="24" font-weight="800" fill="#2E3947">↓ 2 KB/s</text>
    <text x="574" y="452" font-size="13" fill="#6F7D8F">Total 70 KB/s</text>

    <text x="974" y="360" font-size="13" font-weight="700" fill="#7A8796">Thermal State</text>
    <text x="974" y="404" font-size="28" font-weight="800" fill="#1FB973">Chill</text>
    <text x="974" y="432" font-size="13" fill="#6F7D8F">All good and easy</text>

    <text x="574" y="506" font-size="13" font-weight="700" fill="#7A8796">CPU Usage</text>
    <text x="574" y="548" font-size="26" font-weight="800" fill="#2E3947">22%</text>
    <text x="574" y="567" font-size="13" fill="#6F7D8F">Falling to 22%</text>

    <text x="974" y="506" font-size="13" font-weight="700" fill="#7A8796">Memory</text>
    <text x="974" y="548" font-size="26" font-weight="800" fill="#2E3947">16.89 GB / 32 GB</text>
    <text x="974" y="567" font-size="13" fill="#6F7D8F">Normal</text>
  </g>
</svg>
